<svg width="1400" height="500" viewBox="0 0 1400 500" fill="none" xmlns="http://www.w3.org/2000/svg">
<path d="M848.695 226.521C848.495 245.191 848.335 259.691 848.185 274.181C848.175 275.291 848.235 276.411 848.175 277.521C847.875 283.671 850.015 288.861 854.295 293.241C855.465 294.431 856.565 295.701 857.685 296.941C861.005 300.621 862.425 305.051 862.145 309.881C861.765 316.331 861.275 322.791 860.405 329.191C859.255 337.621 855.375 344.841 849.375 350.861C844.485 355.761 840.215 356.141 834.415 352.291C830.105 349.421 826.445 345.831 823.195 341.821C819.965 337.841 816.785 333.811 813.665 329.731C810.735 325.891 808.335 321.731 807.305 316.961C806.955 315.361 806.725 313.601 807.025 312.021C809.705 297.821 810.215 283.491 810.505 269.081C810.895 249.911 812.045 230.761 812.545 211.591C812.915 197.441 812.925 183.271 812.805 169.121C812.755 162.631 811.415 156.251 808.805 150.261C807.885 148.161 806.615 146.051 805.025 144.431C800.895 140.221 794.845 141.391 792.305 146.711C790.985 149.481 790.525 152.491 790.655 155.511C790.875 160.851 791.385 166.181 791.685 171.521C792.085 178.641 792.685 185.771 792.705 192.891C792.765 211.181 793.725 229.441 794.475 247.711C795.125 263.541 794.835 279.361 792.895 295.131C792.045 302.091 789.995 308.681 786.715 314.791C781.345 324.821 775.525 334.611 768.005 343.241C766.025 345.511 763.915 347.661 761.835 349.831C756.665 355.251 750.295 358.111 742.835 358.551C730.075 359.301 717.595 357.941 705.785 352.781C701.925 351.101 698.315 348.811 694.675 346.661C692.755 345.531 691.015 344.111 689.205 342.801C686.165 340.601 682.915 339.051 679.055 338.921C673.675 338.741 668.935 336.671 664.225 334.171C658.015 330.881 651.615 327.981 645.745 324.071C640.795 320.771 636.175 317.141 632.595 312.311C628.145 306.321 625.595 299.601 625.285 292.181C624.835 281.381 624.615 270.571 624.375 259.761C624.135 248.731 624.165 237.681 623.775 226.651C623.505 219.191 622.715 211.761 622.165 204.311C621.845 199.981 621.615 195.631 621.215 191.311C620.735 186.081 619.835 180.911 617.755 176.051C616.885 174.031 615.685 172.101 614.355 170.341C613.205 168.811 612.155 168.831 611.145 170.431C609.845 172.481 608.635 174.671 607.915 176.971C606.105 182.741 605.585 188.761 605.255 194.771C604.705 204.791 604.535 214.831 603.755 224.821C603.225 231.581 602.175 238.331 600.865 244.981C599.255 253.151 600.015 260.951 603.255 268.531C605.005 272.631 606.945 276.651 608.895 280.661C611.575 286.171 613.285 291.871 612.585 298.081C612.435 299.411 612.265 300.741 611.975 302.041C610.275 309.691 609.935 317.491 609.175 325.251C608.755 329.561 608.055 333.871 607.155 338.101C606.205 342.581 603.825 346.331 600.305 349.331C594.555 354.221 587.745 354.661 581.435 350.571C577.735 348.171 575.315 344.771 573.615 340.791C570.785 334.121 568.005 327.431 565.135 320.781C562.885 315.561 560.545 310.371 558.195 305.201C554.125 296.241 552.735 286.881 554.015 277.131C554.725 271.721 555.495 266.321 556.335 260.921C557.435 253.811 557.035 246.691 556.745 239.561C556.475 233.101 556.075 226.651 556.045 220.191C555.975 206.571 557.285 193.041 558.635 179.501C559.555 170.331 559.305 161.291 555.175 152.661C550.735 143.381 550.925 133.421 551.795 123.451C552.725 112.901 556.275 103.031 559.745 93.1507C560.515 90.9707 561.665 88.8507 563.005 86.9707C567.815 80.2207 576.245 78.8307 583.135 83.4507C586.165 85.4807 588.365 88.2807 590.435 91.2007C592.045 93.4707 593.575 95.8207 595.285 98.0107C597.195 100.461 598.215 100.591 600.425 98.3507C602.215 96.5407 603.735 94.4407 605.165 92.3307C606.855 89.8407 608.215 87.1407 609.885 84.6307C614.025 78.4407 619.505 76.8307 626.455 79.6207C629.935 81.0207 632.845 83.2507 635.525 85.8007C641.435 91.4007 647.335 97.0107 653.195 102.661C663.955 113.031 670.175 125.671 672.275 140.441C673.745 150.781 673.595 161.091 672.335 171.441C670.675 185.051 669.485 198.701 669.395 212.441C669.325 224.141 669.025 235.851 668.925 247.551C668.885 252.241 669.335 256.911 670.755 261.421C671.975 265.281 673.655 268.911 676.485 271.891C679.605 275.171 682.855 275.131 686.005 271.821C687.965 269.771 688.705 267.221 688.785 264.481C689.025 256.001 688.705 247.541 687.165 239.171C684.915 226.901 684.735 214.541 686.035 202.191C686.965 193.331 688.435 184.521 689.695 175.701C690.995 166.611 690.115 157.701 687.695 148.891C685.745 141.801 683.665 134.751 681.855 127.621C679.825 119.621 681.095 112.101 686.035 105.381C693.895 94.7107 702.865 85.1407 713.955 77.7307C716.725 75.8807 719.685 74.2507 722.725 72.8907C729.335 69.9507 735.975 70.0807 742.395 73.5507C744.745 74.8207 746.965 76.3407 749.165 77.8507C754.775 81.7007 760.315 85.6507 765.945 89.4707C769.395 91.8107 773.195 93.3707 777.305 94.2007C780.515 94.8407 783.265 94.2307 785.565 91.8207C787.805 89.4807 790.135 87.2407 792.325 84.8607C796.505 80.3107 801.575 78.9907 807.535 80.2907C813.195 81.5207 818.335 83.8307 822.925 87.3307C825.235 89.0907 827.435 90.9807 829.715 92.7807C833.255 95.5707 837.035 97.8407 841.565 98.7207C844.845 99.3607 847.995 99.0007 851.125 98.0007C852.795 97.4707 854.065 96.5007 855.015 95.0207C856.215 93.1407 857.495 91.3207 858.745 89.4607C865.095 80.0007 881.075 76.7607 890.465 85.0707C893.975 88.1807 897.425 91.3507 900.955 94.4307C902.465 95.7507 904.045 96.9907 905.695 98.1307C907.565 99.4407 909.565 99.2807 911.285 97.8907C912.575 96.8507 913.725 95.6107 914.775 94.3307C915.835 93.0407 916.725 91.6107 917.655 90.2207C924.025 80.6507 935.045 78.7907 944.295 82.1507C946.175 82.8307 947.955 83.8007 949.745 84.6907C951.945 85.7807 954.015 87.2007 956.315 87.9907C962.355 90.0707 966.525 94.3407 969.885 99.4207C972.955 104.061 975.705 108.931 978.305 113.851C980.905 118.751 981.575 124.231 982.315 129.651C983.475 138.141 982.495 146.551 981.405 154.961C979.515 169.471 978.615 184.021 980.035 198.641C980.225 200.631 980.185 202.651 980.275 204.651C980.675 213.221 981.275 221.791 981.415 230.371C981.505 236.261 981.055 242.171 980.665 248.061C980.225 254.661 980.475 261.211 981.675 267.701C982.485 272.131 984.295 276.201 986.395 280.161C988.485 284.101 990.655 288.001 992.515 292.051C995.375 298.291 996.985 304.851 997.205 311.761C997.365 316.901 996.285 321.721 994.045 326.301C993.115 328.201 992.065 330.051 991.005 331.881C986.255 340.071 981.565 348.311 976.665 356.411C974.835 359.441 972.765 362.411 970.355 364.991C966.945 368.651 962.465 369.351 958.065 367.151C951.615 363.931 945.945 359.591 941.875 353.481C937.545 346.981 936.385 339.941 938.455 332.401C939.955 326.921 941.765 321.521 942.985 315.981C945.905 302.771 945.915 289.691 940.785 276.861C937.825 269.441 936.625 261.601 936.195 253.661C935.645 243.511 936.365 233.381 937.045 223.261C937.795 212.021 938.635 200.791 937.345 189.531C936.555 182.621 935.045 175.871 932.005 169.591C930.855 167.221 929.365 164.891 927.565 162.981C924.435 159.651 919.785 160.221 917.335 164.111C916.415 165.581 915.695 167.361 915.505 169.071C914.135 181.051 913.485 193.071 914.305 205.121C914.905 213.831 914.635 222.491 913.585 231.141C912.735 238.101 911.905 245.071 911.295 252.061C910.515 260.921 912.805 269.041 917.575 276.541C923.895 286.481 926.455 297.611 927.575 309.151C928.175 315.281 926.315 320.651 922.215 325.151C916.645 331.281 910.455 336.731 903.455 341.221C902.335 341.941 901.135 342.571 899.905 343.091C895.155 345.101 891.125 344.381 887.775 340.511C885.605 338.001 883.555 335.251 882.115 332.281C878.475 324.751 875.125 317.091 871.835 309.401C868.265 301.051 867.805 292.321 869.375 283.471C870.365 277.881 871.405 272.301 872.585 266.741C873.825 260.901 874.045 255.041 873.385 249.121C871.825 235.061 870.105 221.011 868.765 206.921C868.225 201.281 868.495 195.561 868.455 189.871C868.425 184.931 867.875 180.051 866.405 175.351C865.545 172.611 864.255 169.981 862.935 167.421C861.245 164.141 856.665 163.091 853.735 166.661C852.425 168.251 851.255 169.801 850.995 171.881C850.555 175.421 849.885 178.951 849.775 182.491C849.325 198.601 848.985 214.661 848.695 226.521ZM722.775 271.651C722.855 278.361 723.235 281.141 724.795 284.801C728.175 292.721 735.675 295.421 743.215 291.351C748.675 288.401 752.835 284.191 755.195 278.351C756.745 274.501 757.825 270.551 758.045 266.391C758.265 262.281 758.135 258.111 758.795 254.061C760.225 245.281 760.125 236.531 759.085 227.761C757.705 216.231 755.365 204.901 751.765 193.841C748.985 185.291 747.495 176.521 748.005 167.521C748.325 161.861 749.015 156.221 749.615 150.581C750.255 144.521 750.085 138.521 747.855 132.791C744.275 123.581 734.125 121.431 726.915 128.211C724.115 130.841 722.695 134.181 721.765 137.791C719.875 145.171 719.455 152.741 719.105 160.311C719.005 162.521 719.255 164.761 719.545 166.961C720.415 173.471 721.545 179.941 722.305 186.461C723.425 196.081 724.345 205.731 725.315 215.371C726.445 226.611 726.035 237.841 724.895 249.061C724.145 256.581 723.485 264.121 722.775 271.651Z" fill="#FF3742"/>
<path d="M65.5953 342.301C65.6853 364.931 65.7653 387.561 65.8853 410.191C65.9353 419.671 65.6053 429.131 64.6253 438.571C64.1853 442.811 63.3653 446.981 61.6453 450.851C59.7453 455.111 57.5953 459.281 55.2553 463.331C51.8353 469.251 46.4453 472.301 39.7253 473.111C32.9853 473.911 26.5753 472.781 20.6553 469.441C17.3553 467.581 14.1353 465.551 11.0353 463.381C4.97528 459.151 2.27531 452.851 0.885313 445.901C-0.374687 439.611 -0.0946723 433.251 0.525328 426.911C1.88533 413.141 4.85529 399.641 7.23529 386.031C8.98529 376.011 10.1653 365.941 9.44531 355.761C8.99531 349.431 8.10531 343.131 7.38531 336.831C6.28531 327.201 5.02533 317.591 4.08533 307.951C2.54533 292.071 1.9453 276.151 2.1253 260.191C2.2853 245.691 3.46532 231.251 4.64532 216.811C5.45532 206.811 6.14528 196.811 6.91528 186.811C8.24528 169.441 7.78528 152.041 7.35528 134.661C7.10528 124.741 6.64533 114.831 6.08533 104.931C5.76533 99.1507 5.0053 93.3907 4.5553 87.6207C3.7653 77.5807 3.75528 67.5807 6.16528 57.7107C8.59528 47.7707 14.2653 40.4807 23.5853 36.1207C26.2153 34.8907 28.8653 33.7107 31.5553 32.6307C38.6253 29.8207 45.3853 26.4107 51.9453 22.5607C55.1153 20.7007 58.4453 19.1207 61.7253 17.4407C64.6653 15.9307 67.5253 16.3607 70.3653 17.8307C73.6353 19.5307 76.0753 22.0907 78.0053 25.1607C83.6553 34.1807 86.0553 43.8907 84.3853 54.5307C83.3553 61.0507 81.6653 67.3907 79.6153 73.6507C75.1653 87.2007 70.6453 100.721 66.2453 114.291C64.1153 120.861 62.1653 127.491 60.1953 134.111C59.1153 137.751 58.1953 141.401 59.0153 145.281C60.4553 152.091 67.2653 155.411 73.4553 152.191C76.4553 150.631 78.5653 148.151 79.8653 145.141C81.6353 141.061 83.1653 136.871 84.6053 132.661C85.4653 130.141 85.7753 127.431 86.6553 124.911C89.0053 118.151 93.2953 113.361 100.705 112.121C104.385 111.501 107.915 112.401 110.965 114.331C113.865 116.151 116.795 118.201 119.025 120.741C123.575 125.931 127.875 131.381 131.885 136.991C136.235 143.071 139.145 149.901 139.165 157.491C139.175 162.691 138.605 167.931 137.855 173.091C136.735 180.801 135.105 188.431 133.925 196.131C133.145 201.221 133.415 206.371 134.375 211.441C134.625 212.741 135.085 214.031 135.645 215.231C136.285 216.581 137.245 216.851 138.305 215.811C139.635 214.511 141.095 213.071 141.745 211.391C143.065 207.991 144.215 204.451 144.825 200.861C145.905 194.501 146.515 188.061 147.365 181.651C148.345 174.261 149.495 166.891 150.315 159.481C151.115 152.291 151.695 145.061 152.215 137.841C152.755 130.381 153.485 122.951 155.615 115.761C156.405 113.101 157.335 110.451 158.485 107.931C163.285 97.4107 171.365 91.4307 183.025 90.3707C187.915 89.9307 192.765 89.1007 197.645 88.6607C200.405 88.4107 203.245 88.3007 205.985 88.6307C211.755 89.3307 216.105 92.5807 219.465 97.1507C221.305 99.6607 223.005 102.311 224.475 105.051C228.535 112.681 233.575 119.581 239.285 126.051C241.565 128.631 243.605 131.461 245.445 134.371C248.205 138.771 249.195 143.671 248.365 148.811C247.125 156.501 245.725 164.171 244.385 171.851C241.125 190.481 239.865 209.221 241.155 228.121C241.485 232.901 241.675 237.691 241.855 242.481C242.425 257.631 243.075 272.791 241.935 287.941C241.285 296.611 240.535 305.271 239.805 313.931C239.055 322.741 239.355 331.521 240.385 340.291C241.055 345.931 241.655 351.581 242.045 357.241C242.355 361.721 241.485 366.121 240.225 370.421C236.325 383.791 229.505 395.321 218.905 404.541C213.265 409.451 207.915 414.681 202.245 419.551C199.385 422.011 196.255 424.241 192.985 426.111C182.205 432.261 171.765 430.031 164.275 420.201C159.025 413.311 156.045 405.381 154.445 396.991C152.985 389.341 152.025 381.581 150.935 373.861C149.815 365.901 148.375 358.021 145.925 350.341C145.195 348.051 143.755 346.771 141.575 346.161C138.815 345.391 137.415 346.011 136.195 348.641C133.375 354.751 132.295 361.151 133.125 367.861C133.745 372.841 134.365 377.811 134.935 382.801C136.015 392.281 135.005 401.711 134.445 411.171C133.915 420.291 133.825 429.431 133.565 438.561C133.465 442.011 133.595 445.481 133.275 448.911C132.735 454.601 130.235 459.571 127.065 464.251C122.375 471.181 117.795 478.181 112.995 485.021C110.895 488.021 108.485 490.841 105.985 493.511C103.755 495.891 100.985 497.611 97.8453 498.641C91.7653 500.631 85.8253 498.411 82.5153 492.941C80.6253 489.821 79.5853 486.371 79.3753 482.801C79.0053 476.471 78.5753 470.091 78.8753 463.771C79.2853 455.211 80.1253 446.661 81.2153 438.161C82.4153 428.781 84.1953 419.471 85.5653 410.111C87.3353 398.101 89.1953 386.101 90.5753 374.051C92.5153 357.101 92.7753 340.031 93.5453 323.001C94.5653 300.711 94.9053 278.431 94.4753 256.131C94.3353 248.781 94.0853 241.401 92.6353 234.161C91.7353 229.691 90.6053 225.251 89.3153 220.871C88.6953 218.761 87.6653 216.701 86.4653 214.861C85.5153 213.421 84.1653 212.091 82.7153 211.161C79.9953 209.411 77.2553 209.831 75.2753 212.391C73.8653 214.211 72.7553 216.341 71.8953 218.481C69.5653 224.321 68.6153 230.511 67.9253 236.711C65.8253 255.681 65.2353 274.721 65.2253 293.791C65.2153 309.961 65.2253 326.121 65.2253 342.291C65.3553 342.301 65.4753 342.301 65.5953 342.301ZM207.695 266.631C207.955 245.271 208.215 228.001 206.625 210.761C205.975 203.781 205.715 196.761 205.165 189.761C204.845 185.751 204.005 181.821 202.415 178.101C200.975 174.731 198.885 171.941 195.525 170.211C194.165 169.511 192.885 169.361 191.365 169.611C186.785 170.361 184.075 173.191 182.365 177.221C180.735 181.061 180.055 185.141 179.865 189.261C179.495 197.381 179.265 205.511 178.975 213.641C178.915 215.311 178.905 216.981 178.835 218.651C178.235 233.231 177.615 247.811 177.035 262.391C176.915 265.511 177.055 268.641 176.825 271.751C175.725 286.071 174.495 300.391 173.385 314.711C172.895 321.051 172.795 327.411 173.775 333.721C174.385 337.641 175.725 341.251 178.635 344.141C184.075 349.551 192.225 349.151 196.705 342.921C199.285 339.321 201.635 335.441 202.575 331.011C203.475 326.771 204.045 322.461 204.785 318.191C206.305 309.391 207.115 300.531 207.275 291.611C207.425 281.921 207.595 272.231 207.695 266.631Z" fill="#FF3742"/>
<path d="M1150.99 356.691C1152.12 344.261 1153.27 331.841 1154.36 319.411C1154.91 313.201 1155.31 306.971 1155.86 300.761C1156.3 295.661 1156.84 290.561 1157.36 285.461C1158.52 274.091 1158.1 262.771 1156.74 251.441C1155.24 239.021 1154.64 226.551 1155.4 214.061C1155.89 205.951 1156.8 197.861 1157.65 189.771C1158.77 179.181 1158.82 168.651 1156.84 158.141C1155.73 152.231 1154.74 146.251 1155.19 140.211C1155.46 136.671 1155.96 133.121 1156.77 129.671C1157.75 125.481 1159.82 121.751 1163.11 118.871C1170.66 112.241 1178.48 105.961 1187.14 100.781C1195.17 95.9707 1203.38 95.8307 1211.77 99.7807C1217.28 102.381 1222.16 105.901 1226.42 110.211C1230.28 114.121 1234.26 117.821 1239.33 120.161C1240.03 120.481 1240.76 120.901 1241.26 121.471C1243.17 123.591 1245.63 124.091 1248.28 123.821C1253.27 123.331 1258.26 122.841 1263.22 122.091C1269.23 121.191 1275.24 120.551 1281.11 122.511C1284.26 123.561 1287.3 125.031 1290.24 126.581C1293.39 128.241 1296.34 130.281 1299.44 132.051C1300.88 132.871 1302.42 133.591 1304 134.121C1308.28 135.571 1311.45 134.151 1313.19 129.951C1313.87 128.321 1314.19 126.541 1314.75 124.851C1315.8 121.691 1316.58 118.381 1318.05 115.421C1320.85 109.751 1325.25 105.831 1331.74 104.741C1334.78 104.231 1337.75 104.641 1340.67 105.491C1349.71 108.111 1356.87 113.351 1362.11 121.131C1364.47 124.641 1366.66 128.281 1368.87 131.891C1372.91 138.481 1377.61 144.541 1382.94 150.141C1384.25 151.511 1385.55 152.891 1386.77 154.351C1393.5 162.381 1395.55 171.481 1392.72 181.561C1391.64 185.411 1390.37 189.241 1388.83 192.931C1387.25 196.721 1386.59 200.621 1386.52 204.651C1386.36 214.791 1386.27 224.941 1386.17 235.081C1386.05 246.221 1386.02 257.371 1385.82 268.511C1385.62 279.561 1384.12 290.491 1382.69 301.431C1381.34 311.811 1380.13 322.211 1378.91 332.601C1378.47 336.361 1377.95 340.141 1377.91 343.911C1377.87 348.021 1378.48 352.121 1378.58 356.241C1378.71 361.471 1378.64 366.701 1378.59 371.931C1378.56 375.381 1378.12 378.871 1378.44 382.281C1378.71 385.111 1379.42 388.061 1380.66 390.591C1382.52 394.371 1384.92 397.891 1387.28 401.401C1389.52 404.721 1392.09 407.831 1394.38 411.131C1399.28 418.181 1400.32 425.911 1398.03 434.091C1397.25 436.871 1396.3 439.631 1395.08 442.251C1391.84 449.221 1388.51 456.151 1385.04 463.011C1383.59 465.881 1381.76 468.581 1379.98 471.271C1379.19 472.461 1378.18 473.561 1377.11 474.511C1373.61 477.591 1369.67 477.881 1365.71 475.391C1364.58 474.681 1363.49 473.881 1362.5 472.981C1356.81 467.801 1351.18 462.541 1345.49 457.371C1337.84 450.411 1334.61 441.551 1334.11 431.461C1333.86 426.401 1334.24 421.391 1335.7 416.571C1339.64 403.551 1340.01 390.261 1339.08 376.831C1338.91 374.381 1338.95 371.931 1338.83 369.481C1338.29 358.131 1337.69 346.771 1337.21 335.421C1337.06 331.981 1337.24 328.521 1337.26 325.071C1337.32 313.591 1337.25 302.101 1337.47 290.621C1337.69 279.261 1338.22 267.901 1338.58 256.541C1338.9 246.501 1338.9 236.471 1337.53 226.501C1337.05 223.041 1335.94 219.771 1333.93 216.871C1329.47 210.431 1321.61 210.091 1316.65 216.161C1313.66 219.821 1312.27 224.141 1311.93 228.801C1311.41 236.081 1312.2 243.291 1313.57 250.421C1314.72 256.471 1315.28 262.541 1315.19 268.701C1315.03 278.851 1315.73 288.971 1316.5 299.091C1317.63 314.031 1317.35 328.931 1314.39 343.701C1312.57 352.811 1313.43 361.631 1317.1 370.211C1318.98 374.611 1320.66 379.111 1322.22 383.641C1325.6 393.401 1325.85 403.301 1323.1 413.251C1320.34 423.231 1317.56 433.211 1314.63 443.141C1313.85 445.791 1312.77 448.421 1311.41 450.821C1306.81 458.931 1297.79 460.091 1291.18 453.541C1290.47 452.831 1289.79 452.091 1289.15 451.321C1285.03 446.341 1280.9 441.361 1276.81 436.341C1271.7 430.061 1268.41 422.991 1267.43 414.881C1267.03 411.611 1267.47 408.441 1268 405.251C1268.15 404.371 1268.34 403.491 1268.62 402.651C1270.77 396.121 1271.46 389.431 1271.4 382.561C1271.34 375.191 1272.75 367.921 1274.13 360.701C1276.62 347.691 1277.08 334.611 1276.13 321.411C1275.38 310.961 1274.89 300.491 1274.53 290.021C1274.1 277.731 1275.3 265.521 1276.8 253.341C1277.88 244.581 1278.47 235.801 1277.14 227.011C1276.54 223.031 1275.71 219.101 1273.59 215.601C1272.13 213.201 1270.17 211.531 1267.19 211.351C1263.93 211.151 1261.34 212.391 1260.16 215.381C1259.2 217.821 1258.42 220.541 1258.45 223.121C1258.52 229.571 1258.95 236.031 1259.51 242.471C1259.99 248.021 1260.94 253.521 1261.48 259.071C1262.28 267.321 1261.79 275.551 1260.76 283.761C1259.65 292.601 1258.27 301.431 1257.64 310.321C1257.11 317.751 1257.24 325.241 1257.48 332.691C1257.85 344.061 1258.56 355.431 1257.08 366.761C1256.53 370.941 1255.59 375.091 1254.58 379.191C1253.36 384.141 1250.53 388.221 1247.49 392.311C1240.42 401.801 1231.26 409.181 1222.79 417.231C1215.11 424.521 1204.81 425.701 1195.52 420.531C1191.26 418.161 1187.3 415.171 1183.53 412.061C1180.36 409.451 1177.54 406.371 1174.81 403.291C1171.53 399.591 1167.86 396.391 1163.88 393.481C1160.74 391.171 1157.71 388.701 1154.7 386.211C1151.35 383.441 1150.14 379.861 1150.47 375.501C1150.94 369.281 1151.08 363.031 1151.36 356.801C1151.22 356.711 1151.1 356.701 1150.99 356.691ZM1217.89 212.271C1217.96 212.271 1218.03 212.271 1218.1 212.271C1218.1 205.581 1218.26 198.891 1218.05 192.211C1217.86 185.971 1217.22 179.751 1214.99 173.831C1213.56 170.041 1211.67 166.511 1208.54 163.811C1205.71 161.361 1203.47 161.241 1200.35 163.341C1196.37 166.021 1193.76 169.811 1192.86 174.431C1192.03 178.671 1191.57 183.041 1191.54 187.361C1191.42 200.961 1191.48 214.561 1191.67 228.161C1191.76 234.391 1192.24 240.621 1192.68 246.841C1193.02 251.731 1193.67 256.591 1194.02 261.481C1194.9 273.861 1194.19 286.211 1193.23 298.551C1192.22 311.451 1191.5 324.351 1192.8 337.271C1193.35 342.721 1194.24 348.101 1196.56 353.131C1197.6 355.381 1198.91 357.441 1200.85 359.031C1204.48 362.001 1208.76 361.731 1211.89 358.231C1214.6 355.201 1215.9 351.551 1215.84 347.501C1215.78 343.151 1215.4 338.811 1215.37 334.471C1215.34 329.581 1215.4 324.671 1215.68 319.791C1216.44 306.441 1217.37 293.111 1218.14 279.771C1218.44 274.651 1218.56 269.521 1218.63 264.401C1218.7 258.941 1218.72 253.481 1218.56 248.021C1218.35 241.001 1217.8 234.001 1217.64 226.981C1217.51 222.071 1217.79 217.171 1217.89 212.271Z" fill="#FF3742"/>
<path d="M476.165 182.961C475.525 188.601 474.885 194.241 474.255 199.881C473.465 206.961 472.415 214.031 471.965 221.131C471.405 230.021 471.345 238.941 471.065 247.851C470.745 258.101 470.355 268.341 470.125 278.591C469.905 288.511 470.195 298.441 471.515 308.281C473.695 324.551 469.415 338.751 458.175 350.741C452.535 356.761 446.715 362.621 440.915 368.491C437.925 371.521 434.485 373.981 430.735 376.031C423.625 379.911 416.435 379.881 409.185 376.591C404.415 374.431 399.735 372.071 394.985 369.871C384.035 364.801 377.645 356.071 375.015 344.581C373.805 339.281 372.995 333.821 372.705 328.401C372.305 320.731 372.525 313.031 372.535 305.351C372.545 297.881 372.895 290.401 372.635 282.951C372.255 271.931 371.595 260.921 370.835 249.921C369.835 235.361 368.425 220.821 368.455 206.201C368.505 181.351 368.635 156.491 368.575 131.641C368.545 120.611 368.265 109.581 367.845 98.5607C367.625 92.8907 366.855 87.2407 366.305 81.5907C365.045 68.7007 366.065 56.0007 369.685 43.5407C372.825 32.7107 378.945 23.8307 387.825 16.8907C393.095 12.7707 398.455 8.76068 403.885 4.85068C405.955 3.36068 408.225 2.08068 410.555 1.06068C416.045 -1.34932 420.375 0.390684 422.935 5.84068C424.325 8.81068 424.925 11.9607 425.095 15.2207C425.395 20.9507 424.675 26.5807 423.415 32.1307C420.555 44.6407 418.965 57.3407 417.575 70.0807C417.215 73.4007 416.855 76.7307 416.795 80.0707C416.675 87.5307 420.855 91.3307 428.365 90.6707C431.135 90.4207 433.885 89.8907 436.635 89.4407C445.815 87.9407 453.505 91.2907 458.305 99.2607C460.005 102.091 461.285 105.251 462.315 108.411C465.315 117.651 467.275 127.141 468.515 136.781C469.815 146.951 471.375 157.081 473.925 167.041C474.745 170.271 475.205 173.601 475.665 176.911C475.935 178.891 475.875 180.911 475.965 182.921C476.025 182.941 476.095 182.951 476.165 182.961ZM436.055 286.531C435.745 280.191 435.555 275.401 435.255 270.621C434.685 261.731 433.965 252.841 433.475 243.951C433.145 237.831 433.345 231.681 432.865 225.571C432.265 217.921 431.605 210.231 430.275 202.681C428.785 194.221 427.355 185.801 426.825 177.211C426.565 172.981 425.655 168.811 423.605 165.021C420.795 159.831 415.185 158.711 410.645 162.501C406.905 165.621 404.565 169.571 404.225 174.541C403.925 178.871 403.615 183.211 403.305 187.541C402.385 200.481 403.175 213.381 404.505 226.251C405.245 233.451 406.375 240.621 406.865 247.841C407.435 256.171 407.445 264.541 407.775 272.891C408.055 279.901 408.295 286.921 408.855 293.911C409.285 299.161 410.765 304.191 413.425 308.821C414.615 310.881 416.285 312.111 418.595 312.701C421.685 313.491 424.795 313.511 427.905 313.071C430.775 312.661 432.865 311.071 433.705 308.201C434.205 306.491 434.745 304.761 434.895 303.001C435.405 297.001 435.755 291.001 436.055 286.531Z" fill="#FF3742"/>
<path d="M261.605 152.601C261.765 142.391 260.025 132.381 258.675 122.331C257.115 110.731 255.685 99.1207 254.155 87.5207C252.915 78.1307 251.535 68.7507 250.395 59.3507C249.825 54.6007 249.675 49.8007 249.305 45.0207C248.905 39.9107 250.655 35.5607 254.145 31.9407C259.025 26.8907 263.905 21.8207 269.015 17.0207C273.395 12.9007 278.045 9.04068 282.725 5.25068C284.695 3.65068 286.955 2.30068 289.265 1.25068C296.035 -1.81932 301.905 1.17068 303.445 8.45068C303.975 10.9407 304.315 13.5507 304.205 16.0807C303.815 24.6507 303.475 33.2307 302.575 41.7507C301.425 52.6407 300.495 63.4907 301.625 74.4307C302.005 78.1207 302.875 81.6707 304.565 85.0007C306.295 88.4007 308.805 90.9907 312.295 92.5807C313.815 93.2707 315.345 93.9707 316.905 94.5707C333.595 101.021 343.575 113.381 348.485 130.241C350.875 138.451 351.635 146.891 351.775 155.371C351.895 162.391 351.495 169.421 351.565 176.441C351.675 186.691 351.855 196.951 352.265 207.201C352.805 220.471 352.945 233.711 351.555 246.951C350.625 255.871 351.025 264.751 352.745 273.581C355.885 289.711 355.815 305.961 353.835 322.201C352.355 334.321 348.225 345.531 341.415 355.761C337.585 361.511 334.095 367.481 330.555 373.411C327.915 377.831 325.145 382.141 321.335 385.661C312.815 393.541 303.015 395.951 291.935 392.181C288.995 391.181 286.115 389.851 283.445 388.271C278.355 385.271 273.425 381.991 268.445 378.811C265.295 376.801 262.715 374.181 260.645 371.101C259.855 369.921 259.215 368.591 258.775 367.241C257.035 361.881 256.455 356.351 256.695 350.741C256.925 345.281 257.055 339.821 257.445 334.371C258.245 323.291 257.135 312.321 255.835 301.361C254.015 286.041 253.555 270.691 254.505 255.291C254.645 252.951 254.545 250.601 254.725 248.271C255.745 235.611 256.805 222.961 257.885 210.311C258.535 202.651 259.395 195.001 259.875 187.331C260.565 175.771 261.035 164.181 261.605 152.601ZM316.665 209.951C316.575 209.951 316.485 209.951 316.395 209.951C316.395 206.611 316.565 203.251 316.355 199.921C315.975 193.891 314.885 187.981 312.405 182.401C311.085 179.431 309.465 176.631 307.045 174.391C304.405 171.951 302.065 171.901 299.315 174.201C297.085 176.071 295.835 178.561 295.135 181.291C294.385 184.201 293.805 187.151 293.315 190.111C291.745 199.611 291.285 209.131 292.675 218.721C293.855 226.881 294.655 235.101 294.405 243.371C294.085 254.071 293.765 264.761 293.405 275.451C293.225 281.021 292.925 286.591 292.745 292.161C292.555 298.061 292.275 303.971 292.355 309.871C292.435 316.031 294.335 321.681 298.035 326.701C301.085 330.831 305.155 331.911 309.795 329.711C314.145 327.651 316.265 323.971 317.045 319.501C318.455 311.381 319.575 303.211 319.675 294.951C319.835 281.771 318.705 268.681 316.765 255.651C315.665 248.261 315.055 240.831 315.515 233.331C316.005 225.531 316.295 217.741 316.665 209.951Z" fill="#FF3742"/>
<path d="M1076.69 340.821C1076.96 337.261 1077.16 332.921 1077.63 328.601C1078.79 317.991 1078.18 307.451 1076.58 296.951C1074.7 284.611 1072.76 272.281 1072.44 259.771C1072.34 255.871 1072.35 251.971 1072.41 248.071C1072.54 240.161 1072.85 232.251 1072.87 224.341C1072.91 213.041 1070.85 201.951 1069.21 190.811C1068.51 186.081 1068.26 181.291 1067.93 176.511C1067.63 172.291 1067.53 168.061 1067.28 163.831C1066.93 158.161 1066.54 152.491 1066.12 146.831C1065.77 142.051 1065.28 137.291 1065.02 132.501C1064.84 129.281 1064.64 126.021 1064.98 122.831C1065.51 117.821 1067.71 113.391 1071.2 109.771C1074.13 106.721 1077.18 103.741 1080.51 101.141C1086.12 96.7507 1091.88 92.5107 1097.81 88.5707C1100.35 86.8807 1103.41 85.7607 1106.39 84.9707C1112.02 83.4807 1117.25 85.5107 1120.28 90.4807C1122.05 93.3907 1123.44 96.6507 1124.38 99.9307C1127.19 109.681 1129.92 119.451 1133.81 128.841C1135.35 132.541 1137.11 136.151 1138.69 139.841C1143.12 150.231 1141.8 160.061 1135.72 169.421C1134.08 171.941 1132 173.841 1128.93 174.421C1125 175.171 1121.09 176.401 1117.13 176.611C1107.49 177.141 1102.54 183.631 1100.96 190.161C1100.23 193.171 1099.78 196.291 1099.61 199.391C1099.04 209.891 1100.26 220.311 1101.24 230.741C1102.19 240.831 1102.97 250.951 1103.6 261.061C1104.02 267.731 1103.92 274.431 1104.29 281.111C1104.58 286.441 1105 291.791 1105.79 297.061C1106.92 304.581 1110.77 310.561 1117.09 314.901C1117.73 315.341 1118.47 315.741 1118.92 316.341C1121.67 319.931 1125.33 322.521 1128.77 325.351C1133.99 329.641 1137.94 334.761 1139.35 341.531C1140.44 346.761 1140.28 351.941 1138.69 357.051C1136.91 362.801 1135.21 368.551 1134.7 374.601C1134.54 376.481 1134.24 378.361 1133.78 380.191C1133.32 382.021 1132.72 383.831 1131.95 385.551C1128.31 393.631 1122.21 396.141 1113.61 394.521C1109.21 393.691 1105.56 391.391 1102.31 388.361C1100.27 386.461 1098.19 384.611 1096.06 382.821C1083.21 372.071 1076.71 358.371 1076.69 340.821Z" fill="#FF3742"/>
<path d="M541.375 141.851C541.575 148.881 540.645 156.331 537.705 163.481C535.865 167.961 535.345 172.761 535.015 177.541C534.155 190.211 532.975 202.861 533.465 215.601C533.685 221.261 533.165 226.961 532.985 232.641C532.775 239.211 532.635 245.791 532.335 252.361C532.095 257.701 531.735 263.041 531.305 268.371C530.505 278.181 533.305 286.861 539.295 294.601C542.925 299.291 546.255 304.151 547.995 309.931C550.355 317.761 551.315 325.631 548.865 333.621C547.365 338.511 545.695 343.361 544.145 348.231C543.465 350.351 542.895 352.491 542.245 354.621C541.395 357.381 540.745 360.231 539.605 362.871C536.685 369.641 530.445 372.511 523.895 371.561C516.325 370.451 510.355 366.651 505.505 360.921C500.635 355.171 496.915 348.701 494.015 341.781C492.855 339.021 492.015 336.111 491.125 333.251C489.765 328.901 488.615 324.471 487.135 320.161C484.905 313.661 484.685 307.031 485.645 300.341C486.765 292.511 488.335 284.741 489.345 276.901C490.595 267.181 491.755 257.421 492.435 247.651C493.595 231.081 494.185 214.471 493.745 197.851C493.585 191.621 493.185 185.381 492.695 179.171C492.355 174.901 490.875 170.911 488.715 167.211C487.255 164.711 485.755 162.221 484.205 159.771C479.535 152.391 478.085 144.331 478.935 135.751C479.775 127.171 481.635 118.821 484.565 110.711C486.495 105.391 489.385 100.661 493.425 96.6907C498.635 91.5707 503.875 90.6007 510.545 93.5007C515.865 95.8107 520.365 99.2807 524.085 103.661C528.055 108.331 531.925 113.101 535.615 118.001C539.645 123.351 541.075 129.631 541.375 136.201C541.435 137.891 541.375 139.561 541.375 141.851Z" fill="#FF3742"/>
<path d="M1008.34 286.531C1009.25 274.941 1010.13 263.941 1010.95 252.951C1011.27 248.621 1011.71 244.281 1011.68 239.951C1011.63 231.461 1012.4 223.031 1013.23 214.601C1013.74 209.351 1013.43 204.151 1012.74 198.941C1011.68 190.981 1010.75 183.011 1009.77 175.051C1009.18 170.271 1007.93 165.691 1006.18 161.181C1004.69 157.361 1003.61 153.361 1002.57 149.381C1001.27 144.391 1001.62 139.361 1003.38 134.571C1005.07 129.981 1007.08 125.501 1009.2 121.091C1010.81 117.741 1013.29 115.001 1016.32 112.781C1017.3 112.061 1018.15 111.161 1019.02 110.301C1022.38 106.961 1026.31 106.971 1029.55 110.441C1030.53 111.491 1031.4 112.681 1032.18 113.891C1036.01 119.781 1039.8 125.691 1043.58 131.611C1046.34 135.931 1048.93 140.371 1051.8 144.611C1057.09 152.411 1059.04 160.911 1058.37 170.301C1057.54 182.111 1055.59 193.741 1053.83 205.411C1052.28 215.671 1051.19 225.961 1051.21 236.351C1051.25 253.631 1051.27 270.911 1051.38 288.181C1051.4 291.291 1051.72 294.411 1052.08 297.511C1052.65 302.451 1054.16 307.081 1057.13 311.161C1062.3 318.241 1063.28 326.091 1061.14 334.391C1059.39 341.181 1057.48 347.931 1055.53 354.671C1054.16 359.421 1051.84 363.751 1049.1 367.841C1046.58 371.601 1043.32 374.311 1038.6 374.821C1038.17 374.871 1037.7 374.981 1037.33 375.191C1035.45 376.251 1034.2 375.371 1032.55 374.291C1026.59 370.401 1023.91 364.571 1022.17 358.091C1020.11 350.451 1017.69 342.931 1014.8 335.551C1012.8 330.431 1011.89 325.051 1011.44 319.581C1011.08 315.151 1010.38 310.741 1009.97 306.311C1009.35 299.521 1008.85 292.751 1008.34 286.531Z" fill="#FF3742"/>
<path d="M1026.19 95.0107C1018.68 94.8507 1012.21 93.2107 1006.08 90.4007C1001.17 88.1507 997.495 84.4707 995.015 79.6507C992.485 74.7307 992.195 69.6307 993.795 64.4107C995.325 59.4007 998.315 55.2507 1001.79 51.4207C1003.36 49.6907 1005.03 48.0407 1006.65 46.3507C1010.32 42.5407 1012.61 38.0807 1013.36 32.8107C1013.67 30.6107 1014.16 28.4207 1014.8 26.2907C1017.54 17.1407 1025.47 11.6107 1035.87 12.5407C1039.04 12.8207 1042.29 13.6307 1045.24 14.8507C1050.49 17.0107 1055.54 19.6307 1060.65 22.1307C1061.84 22.7107 1062.94 23.5107 1064.01 24.3107C1069.91 28.7607 1072.04 34.7807 1071.15 41.9607C1070.69 45.6507 1069.42 49.1107 1067.61 52.3407C1066.47 54.3807 1065.3 56.4307 1063.86 58.2607C1059.38 63.9807 1055.55 70.0607 1052.24 76.5507C1048.93 83.0307 1043.53 87.7907 1037.59 91.8707C1033.98 94.3407 1029.8 95.0307 1026.19 95.0107Z" fill="#FF3742"/>
<path d="M498.915 81.7607C495.795 81.7607 492.655 81.9807 489.555 81.7207C481.515 81.0407 475.715 75.3107 474.985 67.2807C474.775 65.0007 474.945 62.5407 475.585 60.3507C476.585 56.9607 477.985 53.6607 479.495 50.4507C481.105 47.0307 483.075 43.7807 484.825 40.4207C487.385 35.4907 488.725 30.2607 488.435 24.6607C488.385 23.6607 488.435 22.6607 488.465 21.6507C488.655 15.4507 491.565 10.8507 496.795 7.67068C500.985 5.12068 505.595 3.76067 510.475 3.88067C515.035 4.00067 519.585 4.44068 524.125 4.94068C528.325 5.40068 532.505 6.15067 536.695 6.73067C543.715 7.71067 548.695 10.6407 550.025 20.1807C551.165 28.3807 549.165 35.8907 543.815 42.3507C542.105 44.4107 540.305 46.3807 538.475 48.3307C536.435 50.4907 535.035 52.8907 534.525 55.8907C533.435 62.2107 530.315 67.5207 526.215 72.3907C521.575 77.9107 515.685 80.8607 508.605 81.5407C505.395 81.8507 502.155 81.8907 498.925 82.0607C498.915 81.9607 498.915 81.8607 498.915 81.7607Z" fill="#FF3742"/>
</svg>
