<?xml version="1.0" encoding="UTF-8"?>
<svg id="Capa_1" xmlns="http://www.w3.org/2000/svg" version="1.1" viewBox="0 0 490.25 512.17">
  <!-- Generator: Adobe Illustrator 29.7.1, SVG Export Plug-In . SVG Version: 2.1.1 Build 8)  -->
  <defs>
    <style>
      .st0 {
        fill: #fff;
      }
    </style>
  </defs>
  <path class="st0" d="M99.59,135.62c32.52,18.15,88.48,10.59,99.83,9.07-20.42,9.83-52.18,54.45-52.18,54.45,57.48,49.16,96.35,161.09,96.35,161.09,0,0,38.87-111.93,96.35-161.09,0,0-31.76-44.62-52.18-54.45,11.34,1.51,67.31,9.08,99.83-9.07,14.53-7.79,26.47-14.37,41.59-9.83-12.1-8.32-43.09-31.6-128.57-6.05-16.64,5.29-35.32,12.1-57.02,12.1s-40.38-6.81-57.02-12.1c-85.48-25.55-116.47-2.27-128.57,6.05,15.13-4.54,27.07,2.04,41.59,9.83Z"/>
  <path class="st0" d="M32.53,43.49v425.2h425.2V43.49H32.53ZM97.65,442.15c-2.07,2.64-4.7,4.71-7.8,6.15-3.1,1.44-6.6,2.17-10.41,2.17-7.26,0-13.07-2.46-17.27-7.3-3.52-4.09-5.31-9.09-5.31-14.87,0-6.09,2.17-11.28,6.44-15.44,4.27-4.15,9.68-6.26,16.09-6.26,3.87,0,7.42.78,10.54,2.31,3.13,1.54,5.73,3.72,7.73,6.5l.28.39-4,3.07-.3-.4c-1.72-2.24-3.81-3.96-6.22-5.11-2.41-1.16-5.09-1.74-7.98-1.74-3.15,0-6.11.77-8.8,2.28-2.68,1.51-4.79,3.57-6.26,6.11-1.47,2.55-2.22,5.45-2.22,8.64,0,4.81,1.67,8.88,4.97,12.1,3.3,3.22,7.53,4.85,12.57,4.85,5.54,0,10.24-2.2,13.97-6.54l.31-.36,4,3.03-.31.4ZM140.77,444.08c-4.23,4.24-9.47,6.39-15.55,6.39s-11.44-2.14-15.68-6.36c-4.24-4.22-6.39-9.4-6.39-15.39,0-3.99.98-7.74,2.91-11.15,1.93-3.41,4.61-6.12,7.95-8.05,3.34-1.93,7-2.91,10.88-2.91,6.29,0,11.63,2.13,15.87,6.33,4.24,4.2,6.4,9.45,6.4,15.59s-2.15,11.32-6.38,15.56ZM175.87,449.45l-14.68-18.95h-1.56v18.95h-5.08v-41.81h8.63c4.61,0,7.66.19,9.32.57,2.52.58,4.6,1.84,6.18,3.74,1.59,1.91,2.39,4.28,2.39,7.06,0,2.31-.55,4.37-1.64,6.12-1.09,1.76-2.68,3.11-4.7,4.01-1.8.8-4.23,1.25-7.24,1.34l14.69,18.97h-6.31ZM204.94,449.45h-1.54l-.13-.3-17.81-41.51h5.53l.13.3,13.07,30.47,13.42-30.77h5.53l-18.19,41.81ZM256.88,432.77c0,3.68-.37,6.7-1.09,8.99-.74,2.34-2.24,4.39-4.44,6.11-2.22,1.73-4.93,2.6-8.06,2.6-3.38,0-6.32-.82-8.74-2.44-2.44-1.63-4.09-3.82-4.92-6.51-.52-1.65-.77-4.52-.77-8.75v-25.14h5.08v25.14c0,2.88.05,4.7.16,5.39.19,1.54.64,2.82,1.33,3.83.68,1,1.77,1.86,3.21,2.55,2.72,1.29,5.57,1.4,8.09.23,1.16-.54,2.15-1.29,2.93-2.25.78-.96,1.37-2.14,1.74-3.5.26-.99.4-3.09.4-6.25v-25.14h5.08v25.14ZM283.07,447.06c-2.33,2.27-5.21,3.42-8.55,3.42-2.57,0-4.93-.7-7.02-2.07-2.08-1.36-4.01-3.66-5.74-6.82l-.23-.42,4.33-2.6.25.46c2.34,4.3,5.04,6.48,8.02,6.48,1.28,0,2.5-.3,3.62-.9,1.11-.59,1.97-1.39,2.55-2.38.58-.99.88-2.05.88-3.16,0-1.26-.44-2.51-1.3-3.73-1.24-1.76-3.56-3.93-6.88-6.44-3.48-2.62-5.59-4.48-6.46-5.68-1.5-2-2.26-4.2-2.26-6.54,0-1.86.45-3.57,1.34-5.11.89-1.53,2.17-2.76,3.79-3.64,1.61-.88,3.39-1.32,5.28-1.32,2,0,3.9.5,5.64,1.5,1.73.98,3.57,2.8,5.47,5.4l.29.4-4.12,3.12-.3-.4c-1.49-1.97-2.76-3.28-3.78-3.9-1-.6-2.1-.9-3.28-.9-1.53,0-2.73.44-3.69,1.36-.95.91-1.41,2-1.41,3.33,0,.81.17,1.61.51,2.38.34.77.99,1.64,1.92,2.57.51.49,2.26,1.85,5.21,4.03,3.56,2.63,6.05,5.02,7.39,7.09,1.36,2.11,2.05,4.26,2.05,6.4,0,3.09-1.19,5.8-3.52,8.07ZM331.4,445.91c-2.48,2.35-5.84,3.54-9.99,3.54h-11.71v-41.81h8.55c3.29,0,5.87.4,7.67,1.19,1.82.81,3.28,2.06,4.34,3.73,1.05,1.67,1.59,3.54,1.59,5.57,0,1.9-.47,3.65-1.4,5.21-.76,1.28-1.82,2.37-3.16,3.26,1.7.66,3.06,1.42,4.06,2.27,1.19,1.01,2.14,2.26,2.8,3.7.66,1.44,1,3.02,1,4.69,0,3.4-1.26,6.32-3.75,8.67ZM366.64,412.63h-19.31v11.79h19.14v5h-19.14v15.04h19.14v5h-24.22v-41.81h24.39v5ZM394.04,449.45h-20.78v-41.81h5.08v36.87h15.7v4.94ZM420.86,449.45h-20.78v-41.81h5.08v36.87h15.7v4.94ZM431.39,449.45h-5.08v-41.81h5.08v41.81ZM445.72,391.3H44.53V55.49h401.2v335.81Z"/>
  <path class="st0" d="M174.84,422.52c.68-1.05,1.02-2.24,1.02-3.54s-.35-2.42-1.03-3.46c-.68-1.03-1.58-1.77-2.69-2.21-1.14-.46-3.1-.69-5.82-.69h-6.7v12.88l6.54.05c2.64,0,4.62-.25,5.86-.74,1.2-.48,2.15-1.25,2.82-2.29Z"/>
  <path class="st0" d="M323.65,430.29c-1.35-.32-3.75-.49-7.14-.49h-1.81v14.65h4.56c2.9,0,5.04-.28,6.37-.83,1.29-.54,2.34-1.4,3.13-2.55.78-1.15,1.18-2.41,1.18-3.74,0-1.7-.54-3.15-1.65-4.41-1.11-1.27-2.67-2.15-4.63-2.62Z"/>
  <path class="st0" d="M322.61,423.94c1.23-.49,2.22-1.27,2.94-2.31.72-1.05,1.08-2.23,1.08-3.5,0-1.72-.58-3.04-1.78-4.01-1.21-.98-3.2-1.48-5.93-1.48h-4.23v12.07h1.83c2.76,0,4.8-.25,6.07-.76Z"/>
  <path class="st0" d="M133.54,413.87c-2.65-1.52-5.5-2.29-8.48-2.29s-5.72.77-8.34,2.29-4.69,3.6-6.15,6.17c-1.47,2.58-2.21,5.49-2.21,8.67,0,4.69,1.65,8.71,4.9,11.93,3.25,3.23,7.22,4.87,11.81,4.87,3.07,0,5.94-.75,8.55-2.24,2.6-1.48,4.66-3.54,6.12-6.11,1.46-2.58,2.2-5.49,2.2-8.64s-.74-6.01-2.2-8.54c-1.46-2.53-3.54-4.58-6.19-6.11Z"/>
</svg>